<svg viewBox="0 0 520 220" xmlns="http://www.w3.org/2000/svg" preserveAspectRatio="xMidYMid slice">
  <circle cx="260" cy="110" r="84" fill="#FFDCC2" opacity=".45"/>
  <g stroke="#1A1A1A" stroke-width="1.5" opacity=".35">
    <path d="M58 178 h12 M64 172 v12"/>
    <path d="M452 40 h12 M458 34 v12"/>
  </g>
  <!-- satellite viewfinder brackets -->
  <g fill="none" stroke="#1A1A1A" stroke-width="3" stroke-linecap="round">
    <path d="M168 46 h-26 v26"/>
    <path d="M352 46 h26 v26"/>
    <path d="M168 174 h-26 v-26"/>
    <path d="M352 174 h26 v-26"/>
  </g>
  <!-- mine pit blob -->
  <path d="M238 86 C 262 74, 296 84, 300 106 C 304 128, 282 144, 256 140 C 230 136, 218 118, 226 102 Z" fill="#FF7A29"/>
  <!-- dotted detection rings -->
  <circle cx="262" cy="111" r="48" fill="none" stroke="#0E8C5A" stroke-width="2.5" stroke-linecap="round" stroke-dasharray="0.1 10"/>
  <circle cx="262" cy="111" r="70" fill="none" stroke="#0E8C5A" stroke-width="2.5" stroke-linecap="round" stroke-dasharray="0.1 13"/>
  <!-- crosshair -->
  <g stroke="#1A1A1A" stroke-width="2" stroke-linecap="round">
    <path d="M262 88 v-14"/>
    <path d="M262 134 v14"/>
    <path d="M239 111 h-14"/>
    <path d="M285 111 h14"/>
  </g>
  <circle cx="262" cy="111" r="5" fill="#1A1A1A" stroke="#FFFFFF" stroke-width="2.5"/>
  <text x="388" y="180" font-family="SF Mono, IBM Plex Mono, Menlo, Consolas, monospace" font-size="11" fill="#8a8d99">AOI-04 · SAT</text>
</svg>
