<svg viewBox="0 0 520 220" xmlns="http://www.w3.org/2000/svg" preserveAspectRatio="xMidYMid slice">
  <circle cx="260" cy="110" r="85" fill="#FFDCC2" opacity=".45"/>
  <g stroke="#1A1A1A" stroke-width="1.5" opacity=".35">
    <path d="M452 40 h12 M458 34 v12"/>
    <path d="M58 178 h12 M64 172 v12"/>
  </g>
  <!-- dotted smoke, traced -->
  <path d="M250 54 C 238 40, 258 32, 248 18" fill="none" stroke="#0E8C5A" stroke-width="2.5" stroke-linecap="round" stroke-dasharray="0.1 9"/>
  <path d="M272 58 C 286 44, 268 34, 280 18" fill="none" stroke="#0E8C5A" stroke-width="2.5" stroke-linecap="round" stroke-dasharray="0.1 9"/>
  <!-- scrap slab -->
  <rect x="206" y="172" width="108" height="16" rx="4" fill="#1A1A1A" transform="rotate(-3 260 180)"/>
  <!-- flame -->
  <path d="M260 64 C 268 88, 296 100, 298 132 C 300 158, 282 174, 260 174 C 238 174, 220 158, 222 132 C 224 106, 240 92, 244 72 C 248 84, 256 80, 260 64 Z" fill="#FF7A29"/>
  <path d="M260 112 C 272 126, 278 134, 278 148 C 278 164, 270 172, 260 172 C 250 172, 242 164, 242 148 C 242 134, 248 126, 260 112 Z" fill="#FFDCC2"/>
  <!-- burned cable, copper exposed -->
  <path d="M312 178 C 348 186, 356 158, 392 168" fill="none" stroke="#1A1A1A" stroke-width="5" stroke-linecap="round"/>
  <path d="M392 168 L414 162" fill="none" stroke="#FF7A29" stroke-width="5" stroke-linecap="round"/>
  <!-- monitoring node at smoke top -->
  <circle cx="280" cy="18" r="7" fill="#FF7A29" stroke="#FFFFFF" stroke-width="2.5"/>
  <g font-family="SF Mono, IBM Plex Mono, Menlo, Consolas, monospace" font-size="11" fill="#8a8d99">
    <text x="292" y="22">PM2.5</text>
    <text x="420" y="158">Cu</text>
    <text x="56" y="200">GHA · ACCRA · OPEN BURN</text>
  </g>
</svg>
