<svg viewBox="0 0 520 220" xmlns="http://www.w3.org/2000/svg" preserveAspectRatio="xMidYMid slice">
  <circle cx="264" cy="104" r="86" fill="#FFDCC2" opacity=".45"/>
  <g stroke="#1A1A1A" stroke-width="1.5" opacity=".35">
    <path d="M56 44 h12 M62 38 v12"/>
    <path d="M450 40 h12 M456 34 v12"/>
  </g>
  <!-- Colosseum on the bank: broken ring, two tiers of arches -->
  <g>
    <path d="M176 176 L176 92 Q176 84 186 84 L252 84 L264 116 L294 116 Q300 116 300 124 L300 176 Z" fill="#1A1A1A"/>
    <g fill="#FFFFFF">
      <rect x="191" y="92" width="7" height="8"/>
      <rect x="215" y="92" width="7" height="8"/>
      <rect x="239" y="92" width="7" height="8"/>
      <path d="M188 128 v-16 a6 6 0 0 1 12 0 v16 z"/>
      <path d="M212 128 v-16 a6 6 0 0 1 12 0 v16 z"/>
      <path d="M236 128 v-16 a6 6 0 0 1 12 0 v16 z"/>
      <path d="M188 168 v-20 a6 6 0 0 1 12 0 v20 z"/>
      <path d="M236 168 v-20 a6 6 0 0 1 12 0 v20 z"/>
      <path d="M260 168 v-20 a6 6 0 0 1 12 0 v20 z"/>
      <path d="M284 168 v-20 a6 6 0 0 1 12 0 v20 z"/>
    </g>
    <path d="M212 168 v-20 a6 6 0 0 1 12 0 v20 z" fill="#FF7A29"/>
  </g>
  <!-- rising water: dotted lines climbing the arches -->
  <g fill="none" stroke="#0E8C5A" stroke-width="2.5" stroke-linecap="round" stroke-dasharray="0.1 10">
    <path d="M44 196 Q 150 184 260 196 T 476 196"/>
    <path d="M56 172 Q 160 160 264 172 T 468 172"/>
    <path d="M70 148 Q 168 138 266 148 T 458 148"/>
  </g>
  <!-- level gauge -->
  <g>
    <path d="M396 60 V 196" stroke="#1A1A1A" stroke-width="5" stroke-linecap="round"/>
    <g stroke="#1A1A1A" stroke-width="3" stroke-linecap="round">
      <path d="M396 84 h14"/>
      <path d="M396 112 h14"/>
      <path d="M396 168 h14"/>
    </g>
    <!-- current level marker at flood threshold -->
    <path d="M396 140 h14" stroke="#FF7A29" stroke-width="3" stroke-linecap="round"/>
    <circle cx="396" cy="140" r="7" fill="#FF7A29" stroke="#FFFFFF" stroke-width="2.5"/>
  </g>
  <!-- gauge base node -->
  <circle cx="396" cy="196" r="5" fill="#1A1A1A" stroke="#FFFFFF" stroke-width="2.5"/>
  <text x="60" y="60" font-family="SF Mono, IBM Plex Mono, Menlo, Consolas, monospace" font-size="11" fill="#8a8d99">IDRO · +1.4 M SOPRA SOGLIA</text>
</svg>
