<svg viewBox="0 0 520 220" xmlns="http://www.w3.org/2000/svg" preserveAspectRatio="xMidYMid slice">
  <circle cx="280" cy="110" r="86" fill="#FFDCC2" opacity=".45"/>
  <g stroke="#1A1A1A" stroke-width="1.5" opacity=".35">
    <path d="M64 40 h12 M70 34 v12"/>
    <path d="M448 52 h12 M454 46 v12"/>
  </g>
  <!-- rain dashes over the Adriatic -->
  <g stroke="#0E8C5A" stroke-width="2.5" stroke-linecap="round">
    <path d="M316 44 l-6 16"/>
    <path d="M356 58 l-6 16"/>
    <path d="M396 42 l-6 16"/>
  </g>
  <!-- the boot -->
  <path d="M166 46 L252 34 L268 46 L256 60 L294 84 L334 104 L366 116 L382 118 L392 110 L400 120 L444 140 L432 152 L388 142 L376 150 L360 180 L336 194 L320 186 L338 160 L310 138 L274 118 L238 96 L198 76 L184 66 L162 58 Z" fill="#1A1A1A"/>
  <!-- Sicilia -->
  <path d="M246 190 L300 184 L282 202 Z" fill="#1A1A1A"/>
  <!-- Sardegna -->
  <rect x="150" y="108" width="22" height="46" rx="3" fill="#1A1A1A"/>
  <!-- sea line under the heel -->
  <path d="M380 190 Q 424 182 468 190" fill="none" stroke="#0E8C5A" stroke-width="2.5" stroke-linecap="round" stroke-dasharray="0.1 10"/>
  <!-- risk hotspots: monitored nodes on the peninsula -->
  <circle cx="206" cy="80" r="6" fill="#1A1A1A" stroke="#FFFFFF" stroke-width="2.5"/>
  <circle cx="206" cy="80" r="20" fill="none" stroke="#0E8C5A" stroke-width="2.5" stroke-linecap="round" stroke-dasharray="0.1 10"/>
  <circle cx="314" cy="118" r="7" fill="#FF7A29" stroke="#FFFFFF" stroke-width="2.5"/>
  <circle cx="314" cy="118" r="22" fill="none" stroke="#0E8C5A" stroke-width="2.5" stroke-linecap="round" stroke-dasharray="0.1 10"/>
  <circle cx="346" cy="174" r="6" fill="#1A1A1A" stroke="#FFFFFF" stroke-width="2.5"/>
  <circle cx="346" cy="174" r="20" fill="none" stroke="#0E8C5A" stroke-width="2.5" stroke-linecap="round" stroke-dasharray="0.1 10"/>
  <text x="56" y="186" font-family="SF Mono, IBM Plex Mono, Menlo, Consolas, monospace" font-size="11" fill="#8a8d99">ITALIA · 8.1 MLN ESPOSTI</text>
</svg>
